<svg width="1200" height="400" viewBox="0 0 1200 400" xmlns="http://www.w3.org/2000/svg">
  <defs>
    <linearGradient id="coverGradient" x1="0%" y1="0%" x2="100%" y2="100%">
      <stop offset="0%" style="stop-color:#F9F1EE;stop-opacity:1" />
      <stop offset="30%" style="stop-color:#E4C997;stop-opacity:0.8" />
      <stop offset="70%" style="stop-color:#D8BFD8;stop-opacity:0.6" />
      <stop offset="100%" style="stop-color:#A87878;stop-opacity:0.4" />
    </linearGradient>
    
    <radialGradient id="circle1" cx="50%" cy="50%" r="50%">
      <stop offset="0%" style="stop-color:#A87878;stop-opacity:0.2" />
      <stop offset="100%" style="stop-color:#A87878;stop-opacity:0" />
    </radialGradient>
    
    <radialGradient id="circle2" cx="50%" cy="50%" r="50%">
      <stop offset="0%" style="stop-color:#9F85AF;stop-opacity:0.15" />
      <stop offset="100%" style="stop-color:#9F85AF;stop-opacity:0" />
    </radialGradient>
  </defs>
  
  <!-- Background -->
  <rect width="1200" height="400" fill="url(#coverGradient)"/>
  
  <!-- Decorative circles -->
  <circle cx="200" cy="100" r="80" fill="url(#circle1)"/>
  <circle cx="800" cy="150" r="120" fill="url(#circle2)"/>
  <circle cx="1000" cy="80" r="60" fill="url(#circle1)"/>
  <circle cx="400" cy="300" r="100" fill="url(#circle2)"/>
  
  <!-- Floating elements -->
  <g opacity="0.3">
    <!-- Sparkles -->
    <g transform="translate(300, 120)">
      <path d="M0,-8 L2,0 L0,8 L-2,0 Z" fill="#A87878"/>
      <path d="M-8,0 L0,2 L8,0 L0,-2 Z" fill="#A87878"/>
    </g>
    
    <g transform="translate(700, 80)">
      <path d="M0,-6 L1.5,0 L0,6 L-1.5,0 Z" fill="#9F85AF"/>
      <path d="M-6,0 L0,1.5 L6,0 L0,-1.5 Z" fill="#9F85AF"/>
    </g>
    
    <g transform="translate(900, 250)">
      <path d="M0,-10 L2.5,0 L0,10 L-2.5,0 Z" fill="#E4C997"/>
      <path d="M-10,0 L0,2.5 L10,0 L0,-2.5 Z" fill="#E4C997"/>
    </g>
    
    <!-- Hearts -->
    <g transform="translate(150, 250)">
      <path d="M0,3 C-3,0 -6,0 -6,3 C-6,6 0,9 0,9 C0,9 6,6 6,3 C6,0 3,0 0,3 Z" fill="#A87878"/>
    </g>
    
    <g transform="translate(1050, 180)">
      <path d="M0,2 C-2,0 -4,0 -4,2 C-4,4 0,6 0,6 C0,6 4,4 4,2 C4,0 2,0 0,2 Z" fill="#9F85AF"/>
    </g>
  </g>
  
  <!-- Subtle pattern overlay -->
  <g opacity="0.1">
    <circle cx="100" cy="50" r="2" fill="#A87878"/>
    <circle cx="300" cy="30" r="1.5" fill="#9F85AF"/>
    <circle cx="500" cy="70" r="2.5" fill="#E4C997"/>
    <circle cx="700" cy="40" r="1" fill="#A87878"/>
    <circle cx="900" cy="60" r="2" fill="#9F85AF"/>
    <circle cx="1100" cy="35" r="1.5" fill="#E4C997"/>
    
    <circle cx="50" cy="350" r="2" fill="#A87878"/>
    <circle cx="250" cy="370" r="1.5" fill="#9F85AF"/>
    <circle cx="450" cy="330" r="2.5" fill="#E4C997"/>
    <circle cx="650" cy="360" r="1" fill="#A87878"/>
    <circle cx="850" cy="340" r="2" fill="#9F85AF"/>
    <circle cx="1050" cy="375" r="1.5" fill="#E4C997"/>
  </g>
</svg>