<svg width="200" height="200" viewBox="0 0 200 200" xmlns="http://www.w3.org/2000/svg">
  <defs>
    <linearGradient id="hedGradient" x1="0%" y1="0%" x2="100%" y2="100%">
      <stop offset="0%" style="stop-color:#A87878;stop-opacity:1" />
      <stop offset="50%" style="stop-color:#9F85AF;stop-opacity:1" />
      <stop offset="100%" style="stop-color:#E4C997;stop-opacity:1" />
    </linearGradient>
    <filter id="glow">
      <feGaussianBlur stdDeviation="3" result="coloredBlur"/>
      <feMerge> 
        <feMergeNode in="coloredBlur"/>
        <feMergeNode in="SourceGraphic"/>
      </feMerge>
    </filter>
  </defs>
  
  <!-- Cercle extérieur -->
  <circle cx="100" cy="100" r="90" fill="none" stroke="url(#hedGradient)" stroke-width="2" opacity="0.3"/>
  
  <!-- Cercle intérieur -->
  <circle cx="100" cy="100" r="70" fill="none" stroke="url(#hedGradient)" stroke-width="1.5" opacity="0.5"/>
  
  <!-- Logo HED central -->
  <g transform="translate(100,100)" filter="url(#glow)">
    <!-- H -->
    <path d="M-40,-20 L-40,20 M-40,0 L-20,0 M-20,-20 L-20,20" 
          stroke="url(#hedGradient)" stroke-width="3" fill="none" stroke-linecap="round"/>
    
    <!-- E -->
    <path d="M-10,-20 L-10,20 M-10,-20 L10,-20 M-10,0 L5,0 M-10,20 L10,20" 
          stroke="url(#hedGradient)" stroke-width="3" fill="none" stroke-linecap="round"/>
    
    <!-- D -->
    <path d="M20,-20 L20,20 M20,-20 Q40,-20 40,0 Q40,20 20,20" 
          stroke="url(#hedGradient)" stroke-width="3" fill="none" stroke-linecap="round"/>
  </g>
  
  <!-- Points énergétiques -->
  <circle cx="100" cy="50" r="3" fill="#A87878" opacity="0.8">
    <animate attributeName="opacity" values="0.3;1;0.3" dur="2s" repeatCount="indefinite"/>
  </circle>
  <circle cx="150" cy="100" r="3" fill="#9F85AF" opacity="0.8">
    <animate attributeName="opacity" values="0.3;1;0.3" dur="2s" repeatCount="indefinite" begin="0.5s"/>
  </circle>
  <circle cx="100" cy="150" r="3" fill="#E4C997" opacity="0.8">
    <animate attributeName="opacity" values="0.3;1;0.3" dur="2s" repeatCount="indefinite" begin="1s"/>
  </circle>
  <circle cx="50" cy="100" r="3" fill="#A87878" opacity="0.8">
    <animate attributeName="opacity" values="0.3;1;0.3" dur="2s" repeatCount="indefinite" begin="1.5s"/>
  </circle>
</svg>